<svg width="98" height="40" viewBox="0 0 98 40" fill="none" xmlns="http://www.w3.org/2000/svg">
<g clip-path="url(#clip0_56_376)">
<path d="M22.3832 39.7906V29.6859L22.5923 29.4764H25.1141L25.3232 29.6859V39.7906L25.1141 40H22.5923L22.3832 39.7906Z" fill="#32E6E2"/>
<path d="M22.3832 10.3141V0.209424L22.5923 0H25.1141L25.3232 0.209424V10.3141L25.1141 10.5236H22.5923L22.3832 10.3141Z" fill="#32E6E2"/>
<path d="M13.7037 32.6865H13.3574L11.6228 30.949V30.6021L14.8731 27.3429L16.709 27.3462L16.954 27.5884V29.4274L13.7037 32.6865Z" fill="#32E6E2"/>
<path d="M11.6228 9.48953V9.1394L13.3574 7.4051H13.7037L16.954 10.661V12.4967L16.709 12.7454H14.8731L11.6228 9.48953Z" fill="#32E6E2"/>
<path d="M0.209067 18.5242H14.5007L14.7098 18.7336V21.2631L14.5007 21.4725H0.209067L0 21.2631V18.7336L0.209067 18.5242Z" fill="#32E6E2"/>
<path d="M97.7877 18.5275L97.9967 18.7369V21.2631L97.7877 21.4725H83.2869L83.0779 21.2631L84.1265 18.7369L84.3355 18.5275H97.7877Z" fill="#32E6E2"/>
<path d="M28.5833 25.2651H26.0615L25.8524 25.0556V19.1427C25.8524 18.089 25.4408 17.2742 24.1733 17.248C23.52 17.2317 22.7752 17.248 21.9781 17.2808L21.8573 17.4018V25.0524L21.6482 25.2618H19.1263L18.9173 25.0524V14.9476L19.1263 14.7382H24.8005C27.0055 14.7382 28.7924 16.5281 28.7924 18.7369V25.0524L28.5833 25.2618V25.2651Z" fill="white"/>
<path d="M40.7974 20.841L40.5883 21.0504H34.0681L33.859 21.2598C33.859 21.6819 34.2804 22.945 35.9627 22.945C36.5932 22.945 37.2237 22.7356 37.436 22.3135L37.6451 22.1041H40.1669L40.376 22.3135C40.1669 23.5766 39.1151 25.4745 35.9595 25.4745C32.3857 25.4745 30.7034 22.9483 30.7034 19.9967C30.7034 17.0452 32.3857 14.519 35.7504 14.519C39.1151 14.519 40.7974 17.0452 40.7974 19.9967V20.841ZM37.6418 18.7336C37.6418 18.5242 37.4327 17.0484 35.7504 17.0484C34.0681 17.0484 33.859 18.5242 33.859 18.7336L34.0681 18.9431H37.4327L37.6418 18.7336Z" fill="white"/>
<path d="M46.6839 22.1041C46.6839 22.5262 46.893 22.7356 47.3144 22.7356H49.2058L49.4149 22.945V25.0524L49.2058 25.2618H47.3144C45.423 25.2618 43.7407 24.4175 43.7407 22.1008V17.4673L43.5316 17.2579H42.0583L41.8493 17.0484V14.9411L42.0583 14.7317H43.5316L43.7407 14.5223V12.6276L43.9497 12.4182H46.4716L46.6807 12.6276V14.5223L46.8897 14.7317H49.2025L49.4116 14.9411V17.0484L49.2025 17.2579H46.8897L46.6807 17.4673V22.1008L46.6839 22.1041Z" fill="white"/>
<path d="M54.4651 25.2651H51.9433L51.7342 25.0556V10.7297L51.9433 10.5203H54.4651L54.6742 10.7297V25.0524L54.4651 25.2618V25.2651Z" fill="white"/>
<path d="M60.1426 13.0465H57.6207L57.4117 12.837V10.7297L57.6207 10.5203H60.1426L60.3517 10.7297V12.837L60.1426 13.0465ZM60.1426 25.2651H57.6207L57.4117 25.0556V14.9444L57.6207 14.7349H60.1426L60.3517 14.9444V25.0556L60.1426 25.2651Z" fill="white"/>
<path d="M70.0275 10.7297V12.837L69.8185 13.0465H67.9271C67.5057 13.0465 67.2966 13.2559 67.2966 13.678V14.5223L67.5057 14.7317H69.6094L69.8185 14.9411V17.0484L69.6094 17.2579H67.5057L67.2966 17.4673V25.0491L67.0875 25.2585H64.5657L64.3566 25.0491V17.4673L64.1475 17.2579H62.6743L62.4652 17.0484V14.9411L62.6743 14.7317H64.1475L64.3566 14.5223V13.678C64.3566 11.3613 66.0389 10.517 67.9303 10.517H69.8217L70.0308 10.7264L70.0275 10.7297Z" fill="white"/>
<path d="M77.8055 25.4745C76.9627 27.5818 76.1231 28.8449 73.1799 28.8449H72.128L71.9189 28.6355V26.5281L72.128 26.3187H73.1799C74.2318 26.3187 74.4408 26.1093 74.6531 25.4778V25.2683L71.2885 17.0517V14.9444L71.4976 14.7349H73.389L73.598 14.9444L76.1199 22.1073H76.3289L78.8508 14.9444L79.0599 14.7349H80.9513L81.1603 14.9444V17.0517L77.7957 25.4778L77.8055 25.4745Z" fill="white"/>
</g>
<defs>
<clipPath id="clip0_56_376">
<rect width="98" height="40" fill="white"/>
</clipPath>
</defs>
</svg>
